<svg version="1.1" id="a" xmlns="http://www.w3.org/2000/svg" x="0" y="0" viewBox="0 0 648.1 191.6" width="298" height="88" xml:space="preserve" enable-background="new 0 0 648.1 191.6"><style>.st0{fill:#fff}.st8{enable-background:new}</style><path class="st0" d="M54.2 114.8c-8.9 0-14.8-1.5-19.2-3.4l-2.6-15.2h1.9l1.9 3.6c4.5 8.6 10 12.4 18.8 12.4 10.1 0 15.8-5 15.8-13.2 0-7.3-4.2-11-16.2-15.2-13.6-4.7-20.4-9.9-20.4-21.6s10.7-20.4 24-20.4c8.3 0 13.1 1.1 17.7 3l2.5 15.8h-2l-1.8-3.7c-4.1-8.6-9.3-12.5-17.2-12.5-8.3 0-13.2 5-13.2 12.1s4 10.7 15.4 14.6c15 5 21.3 10.7 21.3 22.3.1 12.7-12.2 21.4-26.7 21.4zM117 108.6c-4.2 3.6-8.5 6-13.9 6-8 0-12.2-3.6-12.2-12.2V69.2h-7.4v-1.9l7.9-3 7.8-15.6h3.2v16h13.4v4.5h-13.4v33c0 4.9 2.4 7.3 6.3 7.3 2.7 0 4.5-.7 7-2.5l1.3 1.6zM145.1 115c-14.5 0-25.2-9.2-25.2-26.3 0-14.5 10.4-25.6 25.3-25.6s25.2 9.2 25.2 26.3c-.1 14.5-10.6 25.6-25.3 25.6zm-1.4-49.3c-7.1 0-11.1 5.4-11.1 20.1 0 16.1 5.2 26.6 13.8 26.6 7.2 0 11.1-5.4 11.1-20.1 0-16.1-5.1-26.6-13.8-26.6zM231.9 113.9c-2.3 0-8.2-.1-12.7-.1s-10.3.1-12.8.1v-1.6l1.7-.3c4.5-.8 5.3-2.2 5.3-11.3V81.1c0-7.6-3.3-11.3-9.2-11.3-4.1 0-7.5 1.6-10.5 3.8v27.1c0 9.2.7 10.5 5.3 11.3l1.7.3v1.6c-2.5 0-8.3-.1-12.8-.1s-10.4.1-12.8.1v-1.6l2-.3c4.2-.6 5-2.2 5-12.2V78.2c0-5.4-.9-6.9-4.6-8.6l-2.5-1.2v-1.1l17.4-3.8 1.4.9v7c5.5-4.7 10.6-7.8 17.1-7.8 9.3 0 14.2 5 14.2 15.5v21c0 10.2.8 11.4 5.1 12.2l1.8.3-.1 1.3zM246.4 84.4v.7c.3 14.2 8 23 18.4 23 5.7 0 9.7-2.1 13.9-6.3l1.4 1c-5.4 7.5-12.4 12.2-21.4 12.2-13.2 0-23.1-9-23.1-24.5 0-16.7 12.6-27.3 24.7-27.3 13.4 0 19.9 7.5 20.2 21.3l-34.1-.1zm21.9-2.8c-.3-10.5-4.1-15.8-10.1-15.8-6.8 0-11.1 5.8-11.8 15.8h21.9zM353.6 113.9c-1.8 0-10.8-.2-14.3-.2-3.7 0-14.9.2-16.8.2v-1.4l3.2-.5c3.1-.5 4.4-1.3 4.4-3.2 0-1.6-1-3.6-3.2-7l-11.2-17.1-11.2 15.4c-2.6 3.6-3.8 6.3-3.8 8.3s1.2 3.2 4.3 3.7l3.3.5v1.4c-1.8 0-9.8-.2-13.4-.2s-9.3.2-11.2.2v-1.5l1.7-.3c4.5-.8 8.7-4.6 12.1-8.9l16.2-21.2-15.9-23.6c-3.7-5.5-6.3-8-10.3-8.7l-2.1-.4V48c1.8 0 10.8.2 14.3.2 3.7 0 14.7-.2 16.6-.2v1.4l-3.2.5c-2.7.4-4.2 1.3-4.2 3.2 0 1.6 1 3.6 3.2 7l9.6 14.8 9.4-13.2c2.5-3.6 3.8-6.3 3.8-8.2s-1.3-3.2-4.3-3.7l-3.3-.5v-1.4c1.8 0 9.8.2 13.4.2s9.3-.2 11.2-.2v1.4l-1.7.3c-4.5.8-8.6 4.2-12.1 8.9l-14.5 19 17.6 25.8c3.7 5.5 6.3 8 10.3 8.7l2.1.4v1.5z"/><rect x="78.3" y="136.4" width="46.2" height="12.8" style="fill:#2b568a"/><rect x="124.5" y="136.4" width="46.2" height="12.8" style="fill:#6fa3cc"/><rect x="170.8" y="136.4" width="46.2" height="12.8" style="fill:#276647"/><rect x="217" y="136.4" width="46.2" height="12.8" style="fill:#ddcd4a"/><rect x="263.2" y="136.4" width="46.2" height="12.8" style="fill:#f29e1a"/><rect x="309.4" y="136.4" width="46.2" height="12.8" style="fill:#a82528"/><rect x="32.1" y="136.4" width="46.2" height="12.8" style="fill:#0d2c4a"/><path class="st0" d="M361.6 58.8c-.8 0-1.5-.1-2.1-.4-.7-.3-1.2-.7-1.7-1.2s-.9-1.1-1.1-1.7c-.3-.7-.4-1.4-.4-2.1 0-.8.1-1.5.4-2.1.3-.7.7-1.2 1.1-1.7s1.1-.9 1.7-1.1c.7-.3 1.4-.4 2.1-.4.8 0 1.5.1 2.1.4.7.3 1.2.7 1.7 1.1.5.5.9 1.1 1.1 1.7.3.7.4 1.4.4 2.1 0 .8-.1 1.5-.4 2.1-.3.7-.7 1.2-1.1 1.7-.5.5-1.1.9-1.7 1.2-.6.2-1.3.4-2.1.4zm0-.8c.7 0 1.3-.1 1.8-.4.6-.2 1.1-.6 1.5-1s.7-.9 1-1.5c.2-.6.3-1.2.3-1.8 0-.7-.1-1.3-.3-1.8-.2-.6-.6-1.1-1-1.5s-.9-.7-1.5-1c-.6-.2-1.2-.4-1.8-.4-.7 0-1.3.1-1.8.4-.6.2-1.1.6-1.5 1s-.7.9-1 1.5c-.2.6-.3 1.2-.3 1.8 0 .7.1 1.3.3 1.8.2.6.6 1.1 1 1.5s.9.8 1.5 1c.6.3 1.2.4 1.8.4zm-2.3-1.4v-6.4h2.8c.7 0 1.3.2 1.7.5.4.4.6.8.6 1.4s-.2 1-.6 1.4-.9.5-1.6.5l.3-.1c.3 0 .5.1.7.2s.4.3.6.6l1.1 1.9h-1.5l-1.1-2.1c-.1-.2-.2-.3-.3-.3-.1-.1-.3-.1-.5-.1h-.7v2.5h-1.5zm1.3-3.6h1.3c.4 0 .7-.1.8-.2.2-.1.3-.4.3-.7s-.1-.6-.3-.7c-.2-.1-.5-.2-.8-.2h-1.3V53z"/><g class="st8"><path class="st0" d="M416.2 84.3h-16.7l.2 28.5c0 .4-.4.8-.8.8H395c-.4 0-.8-.4-.8-.8l.3-36.5-.3-33.2c0-.4.4-.8.8-.8h20.9c14.6 0 24.1 7 24.1 20.8 0 14.7-9.9 21.2-23.8 21.2zm-16.8-7.9V80h17c11.4 0 18.3-4.6 18.3-16.9 0-11.2-6.8-16.4-18.7-16.4h-16.3l-.3 29.7z"/></g><g class="st8"><path class="st0" d="M446.9 113.6c-.4 0-.8-.4-.8-.8l.3-26.3-.3-24.5c0-.4.4-.8.8-.8h3.6c.4 0 .8.4.8.8l-.3 9.7c3.5-7.1 10.1-11.1 17.2-11.1 1.3 0 2.5.1 3.6.4.4.1.8.5.8 1v2.8c0 .4-.4.7-.8.6-1-.3-2.2-.4-3.8-.4-7.5 0-15 4.9-16.9 16.1l.2 31.8c0 .4-.4.8-.8.8l-3.6-.1zM479.5 54.4c-.4 0-.8-.4-.8-.8v-5.5c0-.4.4-.8.8-.8h3.6c.4 0 .8.4.8.8v5.5c0 .4-.4.8-.8.8h-3.6zm0 59.2c-.4 0-.8-.4-.8-.8l.2-26.9-.2-23.9c0-.4.4-.8.8-.8h3.6c.4 0 .8.4.8.8l-.1 23.8.1 27c0 .4-.4.8-.8.8h-3.6zM498.9 91.7l.2 21.1c0 .4-.4.8-.8.8h-3.7c-.4 0-.8-.4-.8-.8l.3-21.1-.2-29.7c0-.4.4-.8.8-.8h3.5c.4 0 .8.4.8.8l-.2 10c3-6 8.4-12 16.9-12 7.6 0 13 3.8 15.2 12 3.2-6.4 8.7-12 16.9-12 10.1 0 16.2 6.6 16.2 21.2v10.6l.1 21.1c0 .4-.4.8-.8.8h-3.6c-.4 0-.8-.4-.8-.8l.2-21.1V81.6c0-12.7-4.9-17.4-12.4-17.4-6.8 0-11.5 5.2-14.9 13.4.1 1.1.1 2.2.1 3.5v10.6l.1 21.1c0 .4-.4.8-.8.8h-3.6c-.4 0-.8-.4-.8-.8l.2-21.1V81.6c0-12.7-4.9-17.4-12.4-17.4-7.3 0-12.2 6-15.7 15.5v12z"/></g><g class="st8"><path class="st0" d="M615.5 95.1c.4 0 .7.4.7.8-1.9 11.5-9.1 18.8-21.6 18.8-15.5 0-23.6-11.1-23.6-27.2S579.9 60 594 60c13.8 0 22.2 9.7 22.5 26.4 0 .4-.4.8-.8.8l-39.6.1c0 14.8 6.2 23.4 18.6 23.4 9.5 0 14.9-5.6 16.6-14.9 0-.5.5-.8.9-.8l3.3.1zM594.1 64c-10.4 0-16.5 7.4-17.7 19.1h34.8c-.1-10.5-6-19.1-17.1-19.1z"/></g></svg>