<svg width="538" height="410" viewBox="0 0 538 410" fill="none" xmlns="http://www.w3.org/2000/svg">
<path d="M446.732 365.652L435.952 363.692C415.864 360.265 402.634 347.53 383.524 319.612L293.856 188.347L367.843 91.3673C385.973 67.3673 406.552 49.7347 429.583 45.8163L438.403 44.3469V37C429.093 37 399.694 37.9796 381.564 37.9796C363.434 37.9796 322.765 37 313.456 37V44.3469L330.114 46.7959C345.795 49.2449 352.165 55.6123 352.165 65.4081C352.165 74.7142 345.304 88.9183 332.565 107.041L284.545 174.143L235.547 98.7141C224.277 81.0815 219.377 71.2857 219.377 62.959C219.377 53.653 227.217 48.7551 240.937 46.7959L257.106 44.3469V37C247.307 37 190.958 37.9796 172.338 37.9796C154.209 37.9796 108.64 37 99.3298 37V44.3469L110.11 46.3061C130.199 49.7347 143.429 62.4694 162.539 90.3876L244.367 210.387L161.558 318.632C144.409 340.673 122.849 360.265 99.8198 364.183L91 365.652V373C100.31 373 129.709 372.02 147.839 372.02C165.968 372.02 206.638 373 215.947 373V365.652L199.288 363.203C183.118 360.754 177.238 354.386 177.238 344.591C177.238 334.794 183.608 320.592 196.838 302.469L253.677 224.101L310.515 311.286C321.785 328.918 326.685 338.713 326.685 347.04C326.685 356.346 319.825 360.754 304.146 363.203L287.976 365.652V373C297.775 373 355.105 372.02 373.724 372.02C391.854 372.02 437.423 373 446.732 373V365.652Z" fill="white"/>
</svg>
